<?xml version="1.0" standalone="no"?>
<!DOCTYPE svg PUBLIC "-//W3C//DTD SVG 20010904//EN"
 "http://www.w3.org/TR/2001/REC-SVG-20010904/DTD/svg10.dtd">
<svg version="1.0" xmlns="http://www.w3.org/2000/svg"
 width="510.000000pt" height="246.000000pt" viewBox="0 0 510.000000 246.000000"
 preserveAspectRatio="xMidYMid meet">

<g transform="translate(0.000000,246.000000) scale(0.100000,-0.100000)"
fill="#000000" stroke="none">
<path d="M820 2052 l0 -232 -345 0 -345 0 0 -583 0 -582 230 -230 230 -230 0
583 0 582 350 0 350 0 0 -353 0 -352 230 -230 230 -230 0 580 0 580 -465 465
-465 465 0 -233z"/>
<path d="M1430 2085 l0 -125 30 0 c29 0 30 2 30 45 l0 45 40 0 c38 0 40 2 40
30 0 28 -2 30 -40 30 -33 0 -40 3 -40 20 0 17 7 20 45 20 43 0 45 1 45 30 l0
30 -75 0 -75 0 0 -125z"/>
<path d="M1680 2098 c-18 -62 -35 -119 -38 -125 -3 -9 6 -13 27 -13 24 0 34 6
41 25 8 21 16 25 50 25 34 0 42 -4 50 -25 7 -19 17 -25 41 -25 22 0 30 4 26
13 -3 8 -20 64 -39 125 l-33 112 -46 0 -45 0 -34 -112z m94 10 c9 -35 8 -38
-14 -38 -11 0 -20 3 -20 8 0 19 13 52 20 52 4 0 10 -10 14 -22z"/>
<path d="M1976 2189 c-47 -37 -32 -94 33 -124 60 -27 55 -49 -9 -42 -50 6 -50
6 -50 -22 0 -32 14 -41 66 -41 41 0 89 22 98 45 18 48 2 77 -61 109 -18 9 -33
20 -33 25 0 15 28 20 59 11 30 -8 31 -8 31 26 l0 34 -54 0 c-39 0 -60 -6 -80
-21z"/>
<path d="M2200 2180 c0 -25 4 -30 25 -30 25 0 25 0 25 -96 l0 -95 33 3 32 3 3
93 c3 90 3 92 27 92 21 0 25 5 25 30 l0 30 -85 0 -85 0 0 -30z"/>
<path d="M2612 2187 c-24 -26 -27 -48 -12 -78 8 -14 7 -25 -5 -41 -21 -32 -19
-55 10 -83 51 -52 165 -21 165 46 0 16 5 29 10 29 15 0 12 49 -4 66 -17 16
-66 19 -66 4 0 -13 -47 -13 -55 -1 -9 15 32 32 60 25 23 -6 25 -3 25 25 0 31
0 31 -53 31 -43 0 -58 -5 -75 -23z m98 -146 c0 -21 -22 -33 -45 -25 -31 12
-15 44 22 44 16 0 23 -6 23 -19z"/>
<path d="M2034 1864 c-75 -37 -91 -149 -30 -210 29 -29 41 -34 80 -34 56 0 94
22 112 67 31 72 4 152 -61 179 -43 18 -62 17 -101 -2z m86 -62 c16 -13 22 -29
22 -55 0 -47 -16 -67 -53 -67 -53 0 -79 80 -39 120 25 25 41 25 70 2z"/>
<path d="M1751 1845 c-63 -54 -63 -146 1 -200 26 -22 39 -25 82 -23 47 3 51 5
54 31 3 26 1 27 -41 27 -52 0 -77 22 -77 68 0 43 42 76 87 67 31 -6 33 -4 33
25 0 30 0 30 -54 30 -44 0 -60 -5 -85 -25z"/>
<path d="M2300 1745 l0 -125 30 0 c29 0 29 0 32 68 l3 67 40 -67 c36 -62 42
-68 72 -68 l33 0 0 125 0 125 -35 0 -34 0 -3 -62 -3 -63 -34 63 c-31 57 -36
62 -67 62 l-34 0 0 -125z"/>
<path d="M2591 1858 c0 -7 17 -62 37 -123 l37 -110 39 0 38 0 39 120 c21 66
39 121 39 123 0 2 -14 2 -32 0 -30 -3 -33 -7 -58 -83 l-27 -80 -26 80 c-24 76
-27 80 -56 83 -21 2 -31 -1 -30 -10z"/>
<path d="M2900 1745 l0 -125 75 0 75 0 0 30 c0 29 -2 30 -45 30 -38 0 -45 3
-45 20 0 17 7 20 40 20 38 0 40 2 40 30 0 28 -2 30 -40 30 -28 0 -40 4 -40 14
0 10 14 16 43 18 38 3 42 6 45 31 l3 27 -75 0 -76 0 0 -125z"/>
<path d="M3150 1745 l0 -125 30 0 c29 0 29 0 32 68 l3 67 36 -65 c31 -56 40
-65 67 -68 l32 -3 0 125 0 126 -30 0 c-29 0 -29 0 -32 -67 l-3 -68 -35 67
c-32 63 -38 68 -67 68 l-33 0 0 -125z"/>
<path d="M3460 1745 l0 -125 30 0 30 0 0 125 0 125 -30 0 -30 0 0 -125z"/>
<path d="M3622 1748 l3 -123 73 -3 72 -3 0 31 c0 28 -2 30 -40 30 -33 0 -40 3
-40 19 0 16 8 20 38 23 32 3 37 6 37 28 0 22 -5 25 -37 28 -54 5 -52 32 2 32
38 0 40 2 40 30 l0 30 -75 0 -76 0 3 -122z"/>
<path d="M3870 1745 l0 -125 30 0 30 0 0 66 c0 38 4 63 9 59 6 -3 25 -32 43
-65 30 -54 36 -60 65 -60 l33 0 0 125 0 125 -30 0 -30 0 0 -67 c-1 -63 -2 -67
-16 -48 -9 11 -27 41 -40 68 -22 42 -28 47 -59 47 l-35 0 0 -125z"/>
<path d="M4170 1840 c0 -25 4 -30 25 -30 24 0 24 -2 27 -92 l3 -93 33 -3 32
-3 0 95 c0 96 0 96 25 96 21 0 25 5 25 30 l0 30 -85 0 -85 0 0 -30z"/>
<path d="M2040 955 l0 -405 240 0 240 0 0 95 0 95 -140 0 -141 0 3 68 3 67
128 3 128 3 -3 87 -3 87 -127 3 -128 3 0 54 0 55 140 0 140 0 0 95 0 95 -240
0 -240 0 0 -405z"/>
<path d="M3300 956 l0 -406 148 0 c238 0 316 20 414 109 94 84 133 184 126
323 -4 78 -9 96 -44 165 -46 90 -109 148 -201 184 -52 20 -79 23 -250 27
l-193 4 0 -406z m397 182 c50 -33 76 -85 81 -166 10 -144 -73 -232 -220 -232
l-48 0 0 216 0 216 73 -4 c59 -2 82 -9 114 -30z"/>
<path d="M4110 955 l0 -405 95 0 95 0 1 263 c0 144 3 255 7 247 3 -8 36 -125
72 -260 l65 -245 90 0 90 0 70 262 70 262 3 -264 2 -265 100 0 100 0 0 405 0
405 -150 0 c-82 0 -150 -3 -150 -6 0 -13 -124 -460 -129 -466 -3 -4 -35 101
-71 233 l-65 239 -147 0 -148 0 0 -405z"/>
<path d="M2610 1160 c0 -5 40 -73 89 -151 l89 -141 -94 -151 c-52 -84 -94
-155 -94 -159 0 -5 46 -8 103 -8 l102 0 49 80 c27 44 50 80 51 80 2 0 25 -36
51 -80 l47 -80 109 0 110 0 -23 38 c-13 20 -56 91 -97 156 -40 66 -71 127 -69
136 2 8 43 75 90 148 48 73 87 135 87 138 0 2 -47 4 -105 4 l-105 0 -47 -72
c-41 -64 -47 -71 -57 -54 -6 10 -27 41 -46 70 l-36 51 -102 3 c-65 2 -102 -1
-102 -8z"/>
</g>
</svg>
